ISO-10303-21;
HEADER;
FILE_DESCRIPTION(('STEP AP214'),'1');
FILE_NAME('Base.step','2025-10-04T16:09:26',(' '),(' '),'Spatial InterOp 3D',' ',' ');
FILE_SCHEMA(('AUTOMOTIVE_DESIGN { 1 0 10303 214 1 1 1 1 }'));
ENDSEC;
DATA;
#1=PRODUCT_DEFINITION_CONTEXT('',#13,'design');
#2=APPLICATION_PROTOCOL_DEFINITION('INTERNATIONAL STANDARD','automotive_design',1994,#13);
#3=PRODUCT_CATEGORY_RELATIONSHIP('NONE','NONE',#14,#15);
#4=SHAPE_DEFINITION_REPRESENTATION(#16,#17);
#5=SHAPE_DEFINITION_REPRESENTATION(#16,#18);
#6=SHAPE_DEFINITION_REPRESENTATION(#16,#19);
#7=SHAPE_DEFINITION_REPRESENTATION(#16,#20);
#8=SHAPE_DEFINITION_REPRESENTATION(#16,#21);
#9= (GEOMETRIC_REPRESENTATION_CONTEXT(3)GLOBAL_UNCERTAINTY_ASSIGNED_CONTEXT((#24))GLOBAL_UNIT_ASSIGNED_CONTEXT((#26,#27,#28))REPRESENTATION_CONTEXT('NONE','WORKSPACE'));
#13=APPLICATION_CONTEXT(' ');
#14=PRODUCT_CATEGORY('part','NONE');
#15=PRODUCT_RELATED_PRODUCT_CATEGORY('detail',' ',(#30));
#16=PRODUCT_DEFINITION_SHAPE('NONE','NONE',#31);
#17=MANIFOLD_SURFACE_SHAPE_REPRESENTATION('1',(#32,#33),#9);
#18=MANIFOLD_SURFACE_SHAPE_REPRESENTATION('2',(#34,#35),#9);
#19=MANIFOLD_SURFACE_SHAPE_REPRESENTATION('3',(#36,#37),#9);
#20=MANIFOLD_SURFACE_SHAPE_REPRESENTATION('4',(#38,#39),#9);
#21=ADVANCED_BREP_SHAPE_REPRESENTATION('5',(#40,#41),#9);
#24=UNCERTAINTY_MEASURE_WITH_UNIT(LENGTH_MEASURE(1.0E-06),#26,'','');
#26= (CONVERSION_BASED_UNIT('METRE',#44)LENGTH_UNIT()NAMED_UNIT(#47));
#27= (NAMED_UNIT(#49)PLANE_ANGLE_UNIT()SI_UNIT($,.RADIAN.));
#28= (NAMED_UNIT(#49)SOLID_ANGLE_UNIT()SI_UNIT($,.STERADIAN.));
#30=PRODUCT('1','','PART--DESC',(#55));
#31=PRODUCT_DEFINITION('','NONE',#56,#1);
#32=SHELL_BASED_SURFACE_MODEL('1',(#57));
#33=AXIS2_PLACEMENT_3D('',#58,#59,#60);
#34=SHELL_BASED_SURFACE_MODEL('2',(#61));
#35=AXIS2_PLACEMENT_3D('',#62,#63,#64);
#36=SHELL_BASED_SURFACE_MODEL('3',(#65));
#37=AXIS2_PLACEMENT_3D('',#66,#67,#68);
#38=SHELL_BASED_SURFACE_MODEL('4',(#69));
#39=AXIS2_PLACEMENT_3D('',#70,#71,#72);
#40=MANIFOLD_SOLID_BREP('5',#73);
#41=AXIS2_PLACEMENT_3D('',#74,#75,#76);
#44=LENGTH_MEASURE_WITH_UNIT(LENGTH_MEASURE(1.0),#77);
#47=DIMENSIONAL_EXPONENTS(1.0,0.0,0.0,0.0,0.0,0.0,0.0);
#49=DIMENSIONAL_EXPONENTS(0.0,0.0,0.0,0.0,0.0,0.0,0.0);
#55=PRODUCT_CONTEXT('',#13,'mechanical');
#56=PRODUCT_DEFINITION_FORMATION_WITH_SPECIFIED_SOURCE(' ','NONE',#30,.NOT_KNOWN.);
#57=CLOSED_SHELL('',(#78));
#58=CARTESIAN_POINT('',(0.0,0.0,0.0));
#59=DIRECTION('',(0.0,0.0,1.0));
#60=DIRECTION('',(1.0,0.0,0.0));
#61=CLOSED_SHELL('',(#79));
#62=CARTESIAN_POINT('',(0.0,0.0,0.0));
#63=DIRECTION('',(0.0,0.0,1.0));
#64=DIRECTION('',(1.0,0.0,0.0));
#65=CLOSED_SHELL('',(#80));
#66=CARTESIAN_POINT('',(0.0,0.0,0.0));
#67=DIRECTION('',(0.0,0.0,1.0));
#68=DIRECTION('',(1.0,0.0,0.0));
#69=CLOSED_SHELL('',(#81));
#70=CARTESIAN_POINT('',(0.0,0.0,0.0));
#71=DIRECTION('',(0.0,0.0,1.0));
#72=DIRECTION('',(1.0,0.0,0.0));
#73=CLOSED_SHELL('',(#82,#83,#84,#85));
#74=CARTESIAN_POINT('',(0.0,0.0,0.0));
#75=DIRECTION('',(0.0,0.0,1.0));
#76=DIRECTION('',(1.0,0.0,0.0));
#77= (NAMED_UNIT(#47)LENGTH_UNIT()SI_UNIT($,.METRE.));
#78=FACE_SURFACE('',(#87),#88,.T.);
#79=FACE_SURFACE('',(#89),#90,.T.);
#80=FACE_SURFACE('',(#91),#92,.T.);
#81=FACE_SURFACE('',(#93),#94,.T.);
#82=ADVANCED_FACE('',(#95),#96,.T.);
#83=ADVANCED_FACE('',(#97),#98,.T.);
#84=ADVANCED_FACE('',(#99),#100,.T.);
#85=ADVANCED_FACE('',(#101),#102,.T.);
#87=FACE_BOUND('',#103,.T.);
#88=PLANE('',#104);
#89=FACE_BOUND('',#105,.T.);
#90=PLANE('',#106);
#91=FACE_BOUND('',#107,.T.);
#92=PLANE('',#108);
#93=FACE_BOUND('',#109,.T.);
#94=PLANE('',#110);
#95=FACE_OUTER_BOUND('',#111,.T.);
#96=CYLINDRICAL_SURFACE('',#112,0.000473735);
#97=FACE_OUTER_BOUND('',#113,.T.);
#98=PLANE('',#114);
#99=FACE_OUTER_BOUND('',#115,.T.);
#100=CYLINDRICAL_SURFACE('',#116,0.000473735);
#101=FACE_OUTER_BOUND('',#117,.T.);
#102=PLANE('',#118);
#103=EDGE_LOOP('',(#119,#120,#121,#122,#123,#124,#125,#126,#127,#128,#129,#130,#131,#132,#133,#134,#135,#136,#137,#138,#139,#140));
#104=AXIS2_PLACEMENT_3D('',#141,#142,#143);
#105=EDGE_LOOP('',(#144,#145,#146,#147,#148,#149));
#106=AXIS2_PLACEMENT_3D('',#150,#151,#152);
#107=EDGE_LOOP('',(#153,#154,#155));
#108=AXIS2_PLACEMENT_3D('',#156,#157,#158);
#109=EDGE_LOOP('',(#159,#160,#161));
#110=AXIS2_PLACEMENT_3D('',#162,#163,#164);
#111=EDGE_LOOP('',(#165,#166,#167,#168,#169,#170,#171));
#112=AXIS2_PLACEMENT_3D('',#172,#173,#174);
#113=EDGE_LOOP('',(#175,#176,#177,#178,#179,#180));
#114=AXIS2_PLACEMENT_3D('',#181,#182,#183);
#115=EDGE_LOOP('',(#184,#185,#186,#187,#188,#189));
#116=AXIS2_PLACEMENT_3D('',#190,#191,#192);
#117=EDGE_LOOP('',(#193,#194,#195));
#118=AXIS2_PLACEMENT_3D('',#196,#197,#198);
#119=ORIENTED_EDGE('',*,*,#199,.T.);
#120=ORIENTED_EDGE('',*,*,#200,.T.);
#121=ORIENTED_EDGE('',*,*,#201,.T.);
#122=ORIENTED_EDGE('',*,*,#202,.T.);
#123=ORIENTED_EDGE('',*,*,#203,.T.);
#124=ORIENTED_EDGE('',*,*,#204,.T.);
#125=ORIENTED_EDGE('',*,*,#205,.T.);
#126=ORIENTED_EDGE('',*,*,#206,.T.);
#127=ORIENTED_EDGE('',*,*,#207,.T.);
#128=ORIENTED_EDGE('',*,*,#208,.T.);
#129=ORIENTED_EDGE('',*,*,#209,.T.);
#130=ORIENTED_EDGE('',*,*,#210,.T.);
#131=ORIENTED_EDGE('',*,*,#211,.T.);
#132=ORIENTED_EDGE('',*,*,#212,.T.);
#133=ORIENTED_EDGE('',*,*,#213,.T.);
#134=ORIENTED_EDGE('',*,*,#214,.T.);
#135=ORIENTED_EDGE('',*,*,#215,.T.);
#136=ORIENTED_EDGE('',*,*,#216,.T.);
#137=ORIENTED_EDGE('',*,*,#217,.T.);
#138=ORIENTED_EDGE('',*,*,#218,.T.);
#139=ORIENTED_EDGE('',*,*,#219,.T.);
#140=ORIENTED_EDGE('',*,*,#220,.T.);
#141=CARTESIAN_POINT('',(0.014354115,0.01018525,0.00157));
#142=DIRECTION('',(0.0,0.0,1.0));
#143=DIRECTION('',(1.0,0.0,0.0));
#144=ORIENTED_EDGE('',*,*,#221,.T.);
#145=ORIENTED_EDGE('',*,*,#222,.T.);
#146=ORIENTED_EDGE('',*,*,#223,.T.);
#147=ORIENTED_EDGE('',*,*,#224,.T.);
#148=ORIENTED_EDGE('',*,*,#225,.T.);
#149=ORIENTED_EDGE('',*,*,#226,.T.);
#150=CARTESIAN_POINT('',(0.0136435,0.006822,0.0));
#151=DIRECTION('',(0.0,0.0,1.0));
#152=DIRECTION('',(1.0,0.0,0.0));
#153=ORIENTED_EDGE('',*,*,#227,.T.);
#154=ORIENTED_EDGE('',*,*,#228,.T.);
#155=ORIENTED_EDGE('',*,*,#229,.T.);
#156=CARTESIAN_POINT('',(0.014354115,0.013170265,0.0));
#157=DIRECTION('',(0.0,0.0,1.0));
#158=DIRECTION('',(1.0,0.0,0.0));
#159=ORIENTED_EDGE('',*,*,#230,.T.);
#160=ORIENTED_EDGE('',*,*,#231,.T.);
#161=ORIENTED_EDGE('',*,*,#232,.T.);
#162=CARTESIAN_POINT('',(0.014354115,0.013170265,0.0));
#163=DIRECTION('',(0.0,0.0,1.0));
#164=DIRECTION('',(1.0,0.0,0.0));
#165=ORIENTED_EDGE('',*,*,#233,.F.);
#166=ORIENTED_EDGE('',*,*,#234,.T.);
#167=ORIENTED_EDGE('',*,*,#235,.T.);
#168=ORIENTED_EDGE('',*,*,#236,.T.);
#169=ORIENTED_EDGE('',*,*,#237,.F.);
#170=ORIENTED_EDGE('',*,*,#238,.T.);
#171=ORIENTED_EDGE('',*,*,#239,.T.);
#172=CARTESIAN_POINT('',(0.014354115,0.013170265,0.0));
#173=DIRECTION('',(-0.0,0.0,-1.0));
#174=DIRECTION('',(0.0,1.0,0.0));
#175=ORIENTED_EDGE('',*,*,#240,.F.);
#176=ORIENTED_EDGE('',*,*,#241,.F.);
#177=ORIENTED_EDGE('',*,*,#242,.F.);
#178=ORIENTED_EDGE('',*,*,#236,.F.);
#179=ORIENTED_EDGE('',*,*,#235,.F.);
#180=ORIENTED_EDGE('',*,*,#234,.F.);
#181=CARTESIAN_POINT('',(0.014354115,0.013170265,0.00157));
#182=DIRECTION('',(0.0,0.0,1.0));
#183=DIRECTION('',(1.0,0.0,0.0));
#184=ORIENTED_EDGE('',*,*,#233,.T.);
#185=ORIENTED_EDGE('',*,*,#243,.T.);
#186=ORIENTED_EDGE('',*,*,#237,.T.);
#187=ORIENTED_EDGE('',*,*,#242,.T.);
#188=ORIENTED_EDGE('',*,*,#241,.T.);
#189=ORIENTED_EDGE('',*,*,#240,.T.);
#190=CARTESIAN_POINT('',(0.014354115,0.013170265,0.0));
#191=DIRECTION('',(-0.0,0.0,-1.0));
#192=DIRECTION('',(0.0,1.0,0.0));
#193=ORIENTED_EDGE('',*,*,#238,.F.);
#194=ORIENTED_EDGE('',*,*,#243,.F.);
#195=ORIENTED_EDGE('',*,*,#239,.F.);
#196=CARTESIAN_POINT('',(0.014354115,0.013170265,0.0));
#197=DIRECTION('',(0.0,0.0,-1.0));
#198=DIRECTION('',(-1.0,0.0,0.0));
#199=EDGE_CURVE('',#244,#245,#246,.F.);
#200=EDGE_CURVE('',#245,#247,#248,.F.);
#201=EDGE_CURVE('',#247,#249,#250,.F.);
#202=EDGE_CURVE('',#249,#251,#252,.F.);
#203=EDGE_CURVE('',#251,#253,#254,.F.);
#204=EDGE_CURVE('',#253,#255,#256,.F.);
#205=EDGE_CURVE('',#255,#257,#258,.F.);
#206=EDGE_CURVE('',#257,#259,#260,.F.);
#207=EDGE_CURVE('',#259,#261,#262,.T.);
#208=EDGE_CURVE('',#261,#263,#264,.F.);
#209=EDGE_CURVE('',#263,#265,#266,.F.);
#210=EDGE_CURVE('',#265,#267,#268,.F.);
#211=EDGE_CURVE('',#267,#269,#270,.F.);
#212=EDGE_CURVE('',#269,#271,#272,.F.);
#213=EDGE_CURVE('',#271,#273,#274,.F.);
#214=EDGE_CURVE('',#273,#275,#276,.F.);
#215=EDGE_CURVE('',#275,#277,#278,.F.);
#216=EDGE_CURVE('',#277,#279,#280,.F.);
#217=EDGE_CURVE('',#279,#281,#282,.T.);
#218=EDGE_CURVE('',#281,#283,#284,.T.);
#219=EDGE_CURVE('',#283,#285,#286,.T.);
#220=EDGE_CURVE('',#285,#244,#287,.F.);
#221=EDGE_CURVE('',#288,#289,#290,.F.);
#222=EDGE_CURVE('',#289,#291,#292,.F.);
#223=EDGE_CURVE('',#291,#293,#294,.F.);
#224=EDGE_CURVE('',#293,#295,#296,.F.);
#225=EDGE_CURVE('',#295,#297,#298,.F.);
#226=EDGE_CURVE('',#297,#288,#299,.F.);
#227=EDGE_CURVE('',#300,#301,#302,.F.);
#228=EDGE_CURVE('',#301,#303,#304,.F.);
#229=EDGE_CURVE('',#303,#300,#305,.F.);
#230=EDGE_CURVE('',#306,#307,#308,.F.);
#231=EDGE_CURVE('',#307,#309,#310,.F.);
#232=EDGE_CURVE('',#309,#306,#311,.F.);
#233=EDGE_CURVE('',#312,#313,#314,.T.);
#234=EDGE_CURVE('',#312,#315,#316,.T.);
#235=EDGE_CURVE('',#315,#317,#318,.T.);
#236=EDGE_CURVE('',#317,#319,#320,.T.);
#237=EDGE_CURVE('',#321,#319,#322,.T.);
#238=EDGE_CURVE('',#321,#323,#324,.T.);
#239=EDGE_CURVE('',#323,#313,#325,.T.);
#240=EDGE_CURVE('',#326,#312,#327,.T.);
#241=EDGE_CURVE('',#328,#326,#329,.T.);
#242=EDGE_CURVE('',#319,#328,#330,.T.);
#243=EDGE_CURVE('',#313,#321,#331,.T.);
#244=VERTEX_POINT('',#332);
#245=VERTEX_POINT('',#333);
#246=LINE('',#334,#335);
#247=VERTEX_POINT('',#336);
#248=LINE('',#337,#338);
#249=VERTEX_POINT('',#339);
#250=LINE('',#340,#341);
#251=VERTEX_POINT('',#342);
#252=LINE('',#343,#344);
#253=VERTEX_POINT('',#345);
#254=LINE('',#346,#347);
#255=VERTEX_POINT('',#348);
#256=LINE('',#349,#350);
#257=VERTEX_POINT('',#351);
#258=LINE('',#352,#353);
#259=VERTEX_POINT('',#354);
#260=LINE('',#355,#356);
#261=VERTEX_POINT('',#357);
#262=CIRCLE('',#358,0.000473735);
#263=VERTEX_POINT('',#359);
#264=LINE('',#360,#361);
#265=VERTEX_POINT('',#362);
#266=LINE('',#363,#364);
#267=VERTEX_POINT('',#365);
#268=LINE('',#366,#367);
#269=VERTEX_POINT('',#368);
#270=LINE('',#369,#370);
#271=VERTEX_POINT('',#371);
#272=LINE('',#372,#373);
#273=VERTEX_POINT('',#374);
#274=LINE('',#375,#376);
#275=VERTEX_POINT('',#377);
#276=LINE('',#378,#379);
#277=VERTEX_POINT('',#380);
#278=LINE('',#381,#382);
#279=VERTEX_POINT('',#383);
#280=LINE('',#384,#385);
#281=VERTEX_POINT('',#386);
#282=CIRCLE('',#387,0.000473735);
#283=VERTEX_POINT('',#388);
#284=B_SPLINE_CURVE_WITH_KNOTS('',2,(#389,#390,#391),.UNSPECIFIED.,.F.,.F.,(3,3),(0.0,1.0),.UNSPECIFIED.);
#285=VERTEX_POINT('',#392);
#286=CIRCLE('',#393,0.000473735);
#287=LINE('',#394,#395);
#288=VERTEX_POINT('',#396);
#289=VERTEX_POINT('',#397);
#290=LINE('',#398,#399);
#291=VERTEX_POINT('',#400);
#292=CIRCLE('',#401,0.000473735);
#293=VERTEX_POINT('',#402);
#294=LINE('',#403,#404);
#295=VERTEX_POINT('',#405);
#296=LINE('',#406,#407);
#297=VERTEX_POINT('',#408);
#298=LINE('',#409,#410);
#299=LINE('',#411,#412);
#300=VERTEX_POINT('',#413);
#301=VERTEX_POINT('',#414);
#302=CIRCLE('',#415,0.000473735);
#303=VERTEX_POINT('',#416);
#304=LINE('',#417,#418);
#305=LINE('',#419,#420);
#306=VERTEX_POINT('',#421);
#307=VERTEX_POINT('',#422);
#308=CIRCLE('',#423,0.000473735);
#309=VERTEX_POINT('',#424);
#310=LINE('',#425,#426);
#311=LINE('',#427,#428);
#312=VERTEX_POINT('',#429);
#313=VERTEX_POINT('',#430);
#314=LINE('',#431,#432);
#315=VERTEX_POINT('',#433);
#316=B_SPLINE_CURVE_WITH_KNOTS('',3,(#434,#435,#436,#437),.UNSPECIFIED.,.F.,.F.,(4,4),(0.0,1.0),.UNSPECIFIED.);
#317=VERTEX_POINT('',#438);
#318=CIRCLE('',#439,0.000473735);
#319=VERTEX_POINT('',#440);
#320=CIRCLE('',#441,0.000473735);
#321=VERTEX_POINT('',#442);
#322=LINE('',#443,#444);
#323=VERTEX_POINT('',#445);
#324=CIRCLE('',#446,0.000473735);
#325=CIRCLE('',#447,0.000473735);
#326=VERTEX_POINT('',#448);
#327=B_SPLINE_CURVE_WITH_KNOTS('',3,(#449,#450,#451,#452),.UNSPECIFIED.,.F.,.F.,(4,4),(0.0,1.0),.UNSPECIFIED.);
#328=VERTEX_POINT('',#453);
#329=CIRCLE('',#454,0.000473735);
#330=CIRCLE('',#455,0.000473735);
#331=CIRCLE('',#456,0.000473735);
#332=CARTESIAN_POINT('',(0.01482785,0.0136435,0.00157));
#333=CARTESIAN_POINT('',(0.02194079,0.0136435,0.00157));
#334=CARTESIAN_POINT('',(0.016607825,0.0136435,0.00157));
#335=VECTOR('',#457,1.0);
#336=CARTESIAN_POINT('',(0.02194079,0.0211596,0.00157));
#337=CARTESIAN_POINT('',(0.02194079,0.01740155,0.00157));
#338=VECTOR('',#458,1.0);
#339=CARTESIAN_POINT('',(0.00534621,0.0211596,0.00157));
#340=CARTESIAN_POINT('',(0.02051959,0.0211596,0.00157));
#341=VECTOR('',#459,1.0);
#342=CARTESIAN_POINT('',(0.00534621,0.0136435,0.00157));
#343=CARTESIAN_POINT('',(0.00534621,0.01740155,0.00157));
#344=VECTOR('',#460,1.0);
#345=CARTESIAN_POINT('',(0.01245915,0.0136435,0.00157));
#346=CARTESIAN_POINT('',(0.010679175,0.0136435,0.00157));
#347=VECTOR('',#461,1.0);
#348=CARTESIAN_POINT('',(0.01245915,0.0,0.00157));
#349=CARTESIAN_POINT('',(0.01245915,0.01018525,0.00157));
#350=VECTOR('',#462,1.0);
#351=CARTESIAN_POINT('',(0.01482785,0.0,0.00157));
#352=CARTESIAN_POINT('',(0.0136435,0.0,0.00157));
#353=VECTOR('',#463,1.0);
#354=CARTESIAN_POINT('',(0.01482785,0.013170265,0.00157));
#355=CARTESIAN_POINT('',(0.01482785,0.01018525,0.00157));
#356=VECTOR('',#464,1.0);
#357=CARTESIAN_POINT('',(0.01388038,0.013170265,0.00157));
#358=AXIS2_PLACEMENT_3D('',#465,#466,#467);
#359=CARTESIAN_POINT('',(0.01388038,0.006727,0.00157));
#360=CARTESIAN_POINT('',(0.01388038,0.01018525,0.00157));
#361=VECTOR('',#468,1.0);
#362=CARTESIAN_POINT('',(0.01340662,0.006727,0.00157));
#363=CARTESIAN_POINT('',(0.0136435,0.006727,0.00157));
#364=VECTOR('',#469,1.0);
#365=CARTESIAN_POINT('',(0.01340662,0.0164541,0.00157));
#366=CARTESIAN_POINT('',(0.01340662,0.01018525,0.00157));
#367=VECTOR('',#470,1.0);
#368=CARTESIAN_POINT('',(0.00818861,0.0164541,0.00157));
#369=CARTESIAN_POINT('',(0.010679175,0.0164541,0.00157));
#370=VECTOR('',#471,1.0);
#371=CARTESIAN_POINT('',(0.00818861,0.018349,0.00157));
#372=CARTESIAN_POINT('',(0.00818861,0.01740155,0.00157));
#373=VECTOR('',#472,1.0);
#374=CARTESIAN_POINT('',(0.01909839,0.018349,0.00157));
#375=CARTESIAN_POINT('',(0.0136435,0.018349,0.00157));
#376=VECTOR('',#473,1.0);
#377=CARTESIAN_POINT('',(0.01909839,0.0164541,0.00157));
#378=CARTESIAN_POINT('',(0.01909839,0.01740155,0.00157));
#379=VECTOR('',#474,1.0);
#380=CARTESIAN_POINT('',(0.01388038,0.0164541,0.00157));
#381=CARTESIAN_POINT('',(0.016607825,0.0164541,0.00157));
#382=VECTOR('',#475,1.0);
#383=CARTESIAN_POINT('',(0.01388038,0.013170265,0.00157));
#384=CARTESIAN_POINT('',(0.01388038,0.01018525,0.00157));
#385=VECTOR('',#476,1.0);
#386=CARTESIAN_POINT('',(0.014332355289524,0.0136435,0.00157));
#387=AXIS2_PLACEMENT_3D('',#477,#478,#479);
#388=CARTESIAN_POINT('',(0.014375874710476,0.0136435,0.00157));
#389=CARTESIAN_POINT('',(0.014332355289524,0.0136435,0.00157));
#390=CARTESIAN_POINT('',(0.014354115,0.0136445005282788,0.00157));
#391=CARTESIAN_POINT('',(0.014375874710476,0.0136435,0.00157));
#392=CARTESIAN_POINT('',(0.01482785,0.013170265,0.00157));
#393=AXIS2_PLACEMENT_3D('',#480,#481,#482);
#394=CARTESIAN_POINT('',(0.01482785,0.01018525,0.00157));
#395=VECTOR('',#483,1.0);
#396=CARTESIAN_POINT('',(0.014117235,0.01269653,0.0));
#397=CARTESIAN_POINT('',(0.014354115,0.01269653,0.0));
#398=CARTESIAN_POINT('',(0.014354115,0.01269653,0.0));
#399=VECTOR('',#484,1.0);
#400=CARTESIAN_POINT('',(0.014354115,0.013644,0.0));
#401=AXIS2_PLACEMENT_3D('',#485,#486,#487);
#402=CARTESIAN_POINT('',(0.013169765,0.013644,0.0));
#403=CARTESIAN_POINT('',(0.0136435,0.013644,0.0));
#404=VECTOR('',#488,1.0);
#405=CARTESIAN_POINT('',(0.013169765,0.0,0.0));
#406=CARTESIAN_POINT('',(0.013169765,0.006822,0.0));
#407=VECTOR('',#489,1.0);
#408=CARTESIAN_POINT('',(0.014117235,0.0,0.0));
#409=CARTESIAN_POINT('',(0.0136435,0.0,0.0));
#410=VECTOR('',#490,1.0);
#411=CARTESIAN_POINT('',(0.014117235,0.006822,0.0));
#412=VECTOR('',#491,1.0);
#413=CARTESIAN_POINT('',(0.01482785,0.013170265,0.0));
#414=CARTESIAN_POINT('',(0.014354115,0.01269653,0.0));
#415=AXIS2_PLACEMENT_3D('',#492,#493,#494);
#416=CARTESIAN_POINT('',(0.01482785,0.01269653,0.0));
#417=CARTESIAN_POINT('',(0.014354115,0.01269653,0.0));
#418=VECTOR('',#495,1.0);
#419=CARTESIAN_POINT('',(0.01482785,0.013170265,0.0));
#420=VECTOR('',#496,1.0);
#421=CARTESIAN_POINT('',(0.014354115,0.013644,0.0));
#422=CARTESIAN_POINT('',(0.01482785,0.013170265,0.0));
#423=AXIS2_PLACEMENT_3D('',#497,#498,#499);
#424=CARTESIAN_POINT('',(0.01482785,0.013644,0.0));
#425=CARTESIAN_POINT('',(0.01482785,0.013170265,0.0));
#426=VECTOR('',#500,1.0);
#427=CARTESIAN_POINT('',(0.014354115,0.013644,0.0));
#428=VECTOR('',#501,1.0);
#429=CARTESIAN_POINT('',(0.014354115,0.0136439999120279,0.00157));
#430=CARTESIAN_POINT('',(0.014354115,0.013644,0.0));
#431=CARTESIAN_POINT('',(0.014354115,0.013644,0.0));
#432=VECTOR('',#502,1.0);
#433=CARTESIAN_POINT('',(0.014375874710476,0.0136435,0.00157));
#434=CARTESIAN_POINT('',(0.014332355289524,0.0136435,0.00157));
#435=CARTESIAN_POINT('',(0.0143468515527766,0.0136441665493705,0.00157));
#436=CARTESIAN_POINT('',(0.0143613784472234,0.0136441665493705,0.00157));
#437=CARTESIAN_POINT('',(0.014375874710476,0.0136435,0.00157));
#438=CARTESIAN_POINT('',(0.01482785,0.013170265,0.00157));
#439=AXIS2_PLACEMENT_3D('',#503,#504,#505);
#440=CARTESIAN_POINT('',(0.014354115,0.01269653,0.00157));
#441=AXIS2_PLACEMENT_3D('',#506,#507,#508);
#442=CARTESIAN_POINT('',(0.014354115,0.01269653,0.0));
#443=CARTESIAN_POINT('',(0.014354115,0.01269653,0.0));
#444=VECTOR('',#509,1.0);
#445=CARTESIAN_POINT('',(0.01482785,0.013170265,0.0));
#446=AXIS2_PLACEMENT_3D('',#510,#511,#512);
#447=AXIS2_PLACEMENT_3D('',#513,#514,#515);
#448=CARTESIAN_POINT('',(0.014332355289524,0.0136435,0.00157));
#449=CARTESIAN_POINT('',(0.014332355289524,0.0136435,0.00157));
#450=CARTESIAN_POINT('',(0.0143468515527766,0.0136441665493705,0.00157));
#451=CARTESIAN_POINT('',(0.0143613784472234,0.0136441665493705,0.00157));
#452=CARTESIAN_POINT('',(0.014375874710476,0.0136435,0.00157));
#453=CARTESIAN_POINT('',(0.01388038,0.013170265,0.00157));
#454=AXIS2_PLACEMENT_3D('',#516,#517,#518);
#455=AXIS2_PLACEMENT_3D('',#519,#520,#521);
#456=AXIS2_PLACEMENT_3D('',#522,#523,#524);
#457=DIRECTION('',(-1.0,0.0,0.0));
#458=DIRECTION('',(0.0,-1.0,0.0));
#459=DIRECTION('',(1.0,0.0,0.0));
#460=DIRECTION('',(0.0,1.0,0.0));
#461=DIRECTION('',(-1.0,0.0,0.0));
#462=DIRECTION('',(0.0,1.0,0.0));
#463=DIRECTION('',(-1.0,0.0,0.0));
#464=DIRECTION('',(0.0,-1.0,0.0));
#465=CARTESIAN_POINT('',(0.014354115,0.013170265,0.00157));
#466=DIRECTION('',(0.0,0.0,-1.0));
#467=DIRECTION('',(0.0,1.0,0.0));
#468=DIRECTION('',(0.0,1.0,0.0));
#469=DIRECTION('',(1.0,0.0,0.0));
#470=DIRECTION('',(0.0,-1.0,0.0));
#471=DIRECTION('',(1.0,0.0,0.0));
#472=DIRECTION('',(0.0,-1.0,0.0));
#473=DIRECTION('',(-1.0,0.0,0.0));
#474=DIRECTION('',(0.0,1.0,0.0));
#475=DIRECTION('',(1.0,0.0,0.0));
#476=DIRECTION('',(0.0,1.0,0.0));
#477=CARTESIAN_POINT('',(0.014354115,0.013170265,0.00157));
#478=DIRECTION('',(0.0,0.0,-1.0));
#479=DIRECTION('',(0.0,1.0,0.0));
#480=CARTESIAN_POINT('',(0.014354115,0.013170265,0.00157));
#481=DIRECTION('',(0.0,0.0,-1.0));
#482=DIRECTION('',(0.0,1.0,0.0));
#483=DIRECTION('',(0.0,-1.0,0.0));
#484=DIRECTION('',(-1.0,0.0,0.0));
#485=CARTESIAN_POINT('',(0.014354115,0.013170265,0.0));
#486=DIRECTION('',(0.0,-0.0,1.0));
#487=DIRECTION('',(0.0,1.0,0.0));
#488=DIRECTION('',(1.0,0.0,0.0));
#489=DIRECTION('',(0.0,1.0,0.0));
#490=DIRECTION('',(-1.0,0.0,0.0));
#491=DIRECTION('',(0.0,-1.0,0.0));
#492=CARTESIAN_POINT('',(0.014354115,0.013170265,0.0));
#493=DIRECTION('',(0.0,-0.0,1.0));
#494=DIRECTION('',(0.0,1.0,0.0));
#495=DIRECTION('',(-1.0,0.0,0.0));
#496=DIRECTION('',(0.0,-1.0,0.0));
#497=CARTESIAN_POINT('',(0.014354115,0.013170265,0.0));
#498=DIRECTION('',(0.0,-0.0,1.0));
#499=DIRECTION('',(0.0,1.0,0.0));
#500=DIRECTION('',(0.0,-1.0,0.0));
#501=DIRECTION('',(1.0,0.0,0.0));
#502=DIRECTION('',(-0.0,0.0,-1.0));
#503=CARTESIAN_POINT('',(0.014354115,0.013170265,0.00157));
#504=DIRECTION('',(0.0,0.0,-1.0));
#505=DIRECTION('',(0.0,1.0,0.0));
#506=CARTESIAN_POINT('',(0.014354115,0.013170265,0.00157));
#507=DIRECTION('',(0.0,0.0,-1.0));
#508=DIRECTION('',(0.0,1.0,0.0));
#509=DIRECTION('',(0.0,-0.0,1.0));
#510=CARTESIAN_POINT('',(0.014354115,0.013170265,0.0));
#511=DIRECTION('',(0.0,-0.0,1.0));
#512=DIRECTION('',(0.0,1.0,0.0));
#513=CARTESIAN_POINT('',(0.014354115,0.013170265,0.0));
#514=DIRECTION('',(0.0,-0.0,1.0));
#515=DIRECTION('',(0.0,1.0,0.0));
#516=CARTESIAN_POINT('',(0.014354115,0.013170265,0.00157));
#517=DIRECTION('',(0.0,0.0,-1.0));
#518=DIRECTION('',(0.0,1.0,0.0));
#519=CARTESIAN_POINT('',(0.014354115,0.013170265,0.00157));
#520=DIRECTION('',(0.0,0.0,-1.0));
#521=DIRECTION('',(0.0,1.0,0.0));
#522=CARTESIAN_POINT('',(0.014354115,0.013170265,0.0));
#523=DIRECTION('',(0.0,-0.0,1.0));
#524=DIRECTION('',(0.0,1.0,0.0));
ENDSEC;
END-ISO-10303-21;
